<?xml version="1.0" encoding="UTF-8" standalone="no"?>
<!DOCTYPE svg PUBLIC "-//W3C//DTD SVG 1.1//EN" "http://www.w3.org/Graphics/SVG/1.1/DTD/svg11.dtd">
<svg width="100%" height="100%" viewBox="0 0 958 363" version="1.1" xmlns="http://www.w3.org/2000/svg" xmlns:xlink="http://www.w3.org/1999/xlink" xml:space="preserve" xmlns:serif="http://www.serif.com/" style="fill-rule:evenodd;clip-rule:evenodd;stroke-linejoin:round;stroke-miterlimit:2;">
    <g transform="matrix(1,0,0,1,-481.32499,-358.713804)">
        <g transform="matrix(1,0,0,1,-0,-34.082139)">
            <g>
                <g transform="matrix(0.834819,0,0,0.834819,131.038016,118.270714)">
                    <path d="M1182.539,467.209C1193.741,424.445 1191.98,415.094 1206.398,377.494C1224.914,329.207 1249.423,328.844 1255.598,328.844C1261.773,328.844 1292.648,328.744 1313.648,404.244C1322.961,437.726 1330.174,460.807 1336.437,477.057C1336.308,476.964 1336.178,476.871 1336.049,476.777C1305.649,454.777 1285.254,440.836 1255.049,438.777C1223.63,436.636 1194.849,459.577 1183.249,466.777C1183.016,466.922 1182.779,467.066 1182.539,467.209Z" style="fill:url(#_Linear1);"/>
                </g>
                <g transform="matrix(0.834819,0,0,0.834819,131.038016,118.270714)">
                    <path d="M1104.912,481.557C1108.254,496.276 1117.633,532.544 1142.048,532.094C1165.88,531.656 1171.348,509.794 1182.398,467.744C1182.445,467.565 1182.492,467.387 1182.539,467.209C1170.785,474.208 1149.744,479.805 1134.843,481.171C1119.748,482.555 1112.135,482.905 1104.912,481.557Z" style="fill:url(#_Linear2);"/>
                </g>
                <g transform="matrix(0.834819,0,0,0.834819,131.038016,118.270714)">
                    <path d="M1408.763,499.734C1408.892,499.572 1409.02,499.409 1409.148,499.244C1427.474,475.658 1438.365,456.106 1465.388,456.104C1486.01,456.103 1492.292,468.347 1513.62,484.826C1523.799,492.69 1532.637,500.214 1566.373,501.327C1522.452,500.838 1427.639,499.8 1409.299,499.736C1409.121,499.736 1408.942,499.735 1408.763,499.734Z" style="fill:url(#_Linear3);"/>
                </g>
                <g transform="matrix(0.834819,0,0,0.834819,131.038016,118.270714)">
                    <path d="M1336.437,477.057C1345.499,500.568 1352.574,509.778 1361.148,515.494C1368.729,520.548 1391.395,521.645 1408.763,499.734C1386.66,499.644 1366.381,498.611 1336.437,477.057Z" style="fill:rgb(8,145,178);"/>
                </g>
                <g transform="matrix(0.834819,0,0,0.834819,131.038016,118.270714)">
                    <path d="M1104.912,481.557C1104.86,481.547 1104.807,481.537 1104.754,481.527C1097.484,480.145 1085.594,472.634 1066.895,473.6C1050.922,474.426 1036.384,484.642 1031.483,488.059C1025.35,492.334 1016.154,499.394 1005.375,500.983C997.3,502.174 959.09,501.495 959.09,501.495L936.148,501.494L967.648,501.494C967.648,501.494 991.953,501.305 1001.148,495.744C1009.326,490.799 1019.758,484.594 1027.148,466.494C1037.261,441.724 1047.398,426.994 1064.648,426.994C1081.898,426.994 1095.931,441.957 1104.898,481.494C1104.903,481.515 1104.908,481.536 1104.912,481.557Z" style="fill:url(#_Linear4);"/>
                </g>
            </g>
            <g transform="matrix(0.467441,0,0,0.467441,-652.499482,257.855683)">
                <path d="M2425.598,603.593L2473.946,603.593L2473.946,482.941L2514.453,482.941C2569.77,482.941 2611.585,444.176 2611.585,390.166C2611.585,335.284 2571.512,298.697 2514.018,298.697L2425.598,298.697L2425.598,603.593ZM2473.946,440.691L2473.946,340.947L2508.791,340.947C2540.152,340.947 2561.93,360.111 2561.93,390.166C2561.93,420.655 2540.152,440.691 2508.355,440.691L2473.946,440.691Z" style="fill-rule:nonzero;"/>
                <path d="M2726.574,609.255C2757.064,609.255 2780.584,592.268 2790.602,573.975L2790.602,603.593L2837.208,603.593L2837.208,376.227L2789.731,376.227L2789.731,513.431C2789.731,544.792 2770.131,566.57 2740.077,566.57C2713.943,566.57 2694.342,548.276 2694.342,516.915L2694.342,376.227L2647.301,376.227L2647.301,512.995C2647.301,562.65 2667.773,609.255 2726.574,609.255Z" style="fill-rule:nonzero;"/>
                <rect x="2888.605" y="288.679" width="47.477" height="314.915" style="fill-rule:nonzero;"/>
                <path d="M2973.105,563.957C2984.429,584.428 3008.821,609.255 3054.991,609.255C3101.597,609.255 3137.313,581.815 3137.313,539.565C3137.313,459.421 3026.244,477.714 3026.244,434.158C3026.244,418.477 3039.311,409.33 3056.734,409.33C3081.996,409.33 3094.192,424.14 3100.726,434.593L3133.393,412.815C3124.682,395.392 3102.032,370.565 3059.347,370.565C3015.355,370.565 2981.381,394.957 2981.381,435.029C2981.381,513.866 3092.014,498.186 3092.014,541.743C3092.014,560.036 3077.205,570.054 3057.169,570.054C3028.857,570.054 3013.177,555.681 3002.723,540.436L2973.105,563.957Z" style="fill-rule:nonzero;"/>
                <path d="M3208.746,490.346C3208.746,445.918 3238.365,412.815 3281.05,412.815C3323.3,412.815 3354.225,445.482 3354.225,489.91C3354.225,534.338 3323.3,567.006 3281.05,567.006C3238.8,567.006 3208.746,535.209 3208.746,490.346ZM3160.834,490.346C3160.834,559.165 3211.36,609.255 3281.05,609.255C3350.305,609.255 3401.702,558.294 3401.702,489.91C3401.702,421.526 3351.176,370.565 3281.05,370.565C3212.666,370.565 3160.834,421.526 3160.834,490.346Z" style="fill-rule:nonzero;"/>
            </g>
            <g transform="matrix(0.467441,0,0,0.467441,-652.499482,434.132485)">
                <rect x="2425.598" y="298.697" width="48.348" height="304.897" style="fill-rule:nonzero;"/>
                <path d="M2643.381,370.565C2612.891,370.565 2589.371,387.988 2579.353,405.846L2579.353,376.227L2532.747,376.227L2532.747,603.593L2580.224,603.593L2580.224,466.39C2580.224,435.464 2599.824,413.251 2629.878,413.251C2656.012,413.251 2675.613,431.544 2675.613,462.905L2675.613,603.593L2722.654,603.593L2722.654,466.825C2722.654,417.171 2702.182,370.565 2643.381,370.565Z" style="fill-rule:nonzero;"/>
                <path d="M2777.971,376.227L2752.708,376.227L2752.708,415.428L2777.971,415.428L2777.971,513.866C2777.971,569.619 2794.523,606.642 2849.839,606.642C2864.649,606.642 2872.924,604.9 2872.924,604.9L2872.924,563.957C2872.924,563.957 2867.698,564.392 2863.778,564.392C2838.515,564.392 2825.012,556.552 2825.012,521.271L2825.012,415.428L2871.182,415.428L2871.182,376.227L2825.012,376.227L2825.012,328.751L2777.971,328.751L2777.971,376.227Z" style="fill-rule:nonzero;"/>
                <path d="M2897.316,490.781C2897.316,559.601 2944.357,609.255 3015.355,609.255C3069.365,609.255 3099.419,578.33 3110.308,559.601L3078.947,536.08C3070.236,548.712 3050.636,567.877 3016.226,567.877C2975.718,567.877 2946.535,541.743 2945.664,501.235L3116.842,501.235C3117.277,497.315 3117.277,493.395 3117.277,489.475C3117.277,418.042 3076.77,370.565 3007.95,370.565C2945.664,370.565 2897.316,420.22 2897.316,490.781ZM2947.406,468.567C2950.455,432.851 2975.718,410.202 3008.386,410.202C3041.053,410.202 3067.187,431.109 3068.929,468.567L2947.406,468.567Z" style="fill-rule:nonzero;"/>
                <rect x="3155.607" y="288.679" width="47.477" height="314.915" style="fill-rule:nonzero;"/>
                <path d="M3256.223,603.593L3303.7,603.593L3303.7,376.227L3256.223,376.227L3256.223,603.593ZM3250.125,320.039C3250.125,336.591 3263.192,349.658 3279.744,349.658C3296.295,349.658 3309.362,336.591 3309.362,320.039C3309.362,303.488 3296.295,290.421 3279.744,290.421C3263.192,290.421 3250.125,303.488 3250.125,320.039Z" style="fill-rule:nonzero;"/>
                <path d="M3371.213,665.444C3391.249,677.204 3423.045,687.222 3453.535,687.222C3519.741,687.222 3571.573,658.91 3571.573,573.539L3571.573,376.227L3526.71,376.227L3526.71,406.717C3519.741,396.263 3495.349,370.565 3452.663,370.565C3388.2,370.565 3342.901,420.22 3342.901,490.346C3342.901,560.036 3386.457,609.255 3451.792,609.255C3496.656,609.255 3519.305,581.379 3524.532,573.975L3524.532,589.219C3524.532,632.34 3490.993,646.279 3453.099,646.279C3421.303,646.279 3394.733,633.647 3386.457,628.856L3371.213,665.444ZM3525.839,489.91C3525.839,534.774 3499.269,567.006 3458.326,567.006C3419.56,567.006 3390.377,536.516 3390.377,489.91C3390.377,444.176 3418.689,412.815 3457.89,412.815C3497.091,412.815 3525.839,443.305 3525.839,489.91Z" style="fill-rule:nonzero;"/>
                <path d="M3609.467,490.781C3609.467,559.601 3656.509,609.255 3727.506,609.255C3781.516,609.255 3811.57,578.33 3822.459,559.601L3791.099,536.08C3782.387,548.712 3762.787,567.877 3728.377,567.877C3687.869,567.877 3658.686,541.743 3657.815,501.235L3828.993,501.235C3829.428,497.315 3829.428,493.395 3829.428,489.475C3829.428,418.042 3788.921,370.565 3720.101,370.565C3657.815,370.565 3609.467,420.22 3609.467,490.781ZM3659.558,468.567C3662.606,432.851 3687.869,410.202 3720.537,410.202C3753.204,410.202 3779.338,431.109 3781.081,468.567L3659.558,468.567Z" style="fill-rule:nonzero;"/>
                <path d="M3978.392,370.565C3947.903,370.565 3924.382,387.988 3914.364,405.846L3914.364,376.227L3867.758,376.227L3867.758,603.593L3915.235,603.593L3915.235,466.39C3915.235,435.464 3934.836,413.251 3964.89,413.251C3991.024,413.251 4010.624,431.544 4010.624,462.905L4010.624,603.593L4057.665,603.593L4057.665,466.825C4057.665,417.171 4037.194,370.565 3978.392,370.565Z" style="fill-rule:nonzero;"/>
                <path d="M4112.982,376.227L4087.719,376.227L4087.719,415.428L4112.982,415.428L4112.982,513.866C4112.982,569.619 4129.534,606.642 4184.851,606.642C4199.66,606.642 4207.936,604.9 4207.936,604.9L4207.936,563.957C4207.936,563.957 4202.709,564.392 4198.789,564.392C4173.526,564.392 4160.023,556.552 4160.023,521.271L4160.023,415.428L4206.193,415.428L4206.193,376.227L4160.023,376.227L4160.023,328.751L4112.982,328.751L4112.982,376.227Z" style="fill-rule:nonzero;"/>
                <path d="M4232.327,490.781C4232.327,559.601 4279.369,609.255 4350.366,609.255C4404.376,609.255 4434.43,578.33 4445.319,559.601L4413.959,536.08C4405.247,548.712 4385.647,567.877 4351.237,567.877C4310.729,567.877 4281.546,541.743 4280.675,501.235L4451.853,501.235C4452.288,497.315 4452.288,493.395 4452.288,489.475C4452.288,418.042 4411.781,370.565 4342.961,370.565C4280.675,370.565 4232.327,420.22 4232.327,490.781ZM4282.418,468.567C4285.467,432.851 4310.729,410.202 4343.397,410.202C4376.064,410.202 4402.198,431.109 4403.941,468.567L4282.418,468.567Z" style="fill-rule:nonzero;"/>
            </g>
        </g>
    </g>
    <defs>
        <linearGradient id="_Linear1" x1="0" y1="0" x2="1" y2="0" gradientUnits="userSpaceOnUse" gradientTransform="matrix(153.898556,0,0,148.213313,1182.538617,402.950836)"><stop offset="0" style="stop-color:rgb(15,191,159);stop-opacity:1"/><stop offset="0.47" style="stop-color:rgb(11,178,164);stop-opacity:1"/><stop offset="1" style="stop-color:rgb(0,145,178);stop-opacity:1"/></linearGradient>
        <linearGradient id="_Linear2" x1="0" y1="0" x2="1" y2="0" gradientUnits="userSpaceOnUse" gradientTransform="matrix(77.626123,0,0,64.889327,1104.912494,499.653646)"><stop offset="0" style="stop-color:rgb(8,145,178);stop-opacity:1"/><stop offset="0.61" style="stop-color:rgb(9,153,175);stop-opacity:1"/><stop offset="0.81" style="stop-color:rgb(12,171,168);stop-opacity:1"/><stop offset="1" style="stop-color:rgb(15,190,160);stop-opacity:1"/></linearGradient>
        <linearGradient id="_Linear3" x1="0" y1="0" x2="1" y2="0" gradientUnits="userSpaceOnUse" gradientTransform="matrix(157.609264,0,0,45.222432,1408.763398,478.715391)"><stop offset="0" style="stop-color:rgb(8,145,178);stop-opacity:1"/><stop offset="0.17" style="stop-color:rgb(11,165,170);stop-opacity:1"/><stop offset="0.38" style="stop-color:rgb(14,184,162);stop-opacity:1"/><stop offset="1" style="stop-color:rgb(15,191,159);stop-opacity:1"/></linearGradient>
        <linearGradient id="_Linear4" x1="0" y1="0" x2="1" y2="0" gradientUnits="userSpaceOnUse" gradientTransform="matrix(168.764287,0,0,74.693844,936.148208,464.341098)"><stop offset="0" style="stop-color:rgb(15,190,160);stop-opacity:1"/><stop offset="0.67" style="stop-color:rgb(14,184,162);stop-opacity:1"/><stop offset="1" style="stop-color:rgb(8,148,177);stop-opacity:1"/></linearGradient>
    </defs>
</svg>
